<svg viewBox="0 0 72 72" xmlns="http://www.w3.org/2000/svg"><g fill="none" stroke="#000" stroke-linecap="round" stroke-linejoin="round" stroke-width="2"><path d="M11 16.91l5-5h43a1 1 0 011 1v43a1 1 0 01-1 1"/><rect x="11" y="15.91" width="45" height="45" rx="1"/><polyline points="47.36 29.8 43.36 29.8 43.36 36.8 47.36 36.8"/><line x1="43.36" x2="46.36" y1="33.3" y2="33.3"/><polyline points="19.64 36.8 19.64 29.8 24.64 36.8 24.64 29.8"/><path d="M30.86 36.8a2.5 2.5 0 01-2.5-2.5v-2a2.5 2.5 0 015 0v2a2.5 2.5 0 01-2.5 2.5z"/><line x1="36.36" x2="40.36" y1="29.83" y2="29.83"/><line x1="38.36" x2="38.36" y1="29.83" y2="36.83"/></g></svg>
